<svg width="18" height="19" viewBox="0 0 18 19" fill="none" xmlns="http://www.w3.org/2000/svg">
<path d="M17.469 6.86726C17.469 6.84071 17.469 6.84071 17.469 6.81416C17.469 6.81416 17.469 6.78761 17.4425 6.78761C17.4425 6.78761 17.4425 6.76106 17.4159 6.76106L12.8761 1.07965C12.8496 1.0531 12.8496 1.0531 12.823 1.02655C12.823 1.02655 12.823 1.02655 12.7965 1.02655C12.7699 1.02655 12.7699 1.02655 12.7434 1C12.7434 1 12.7434 1 12.7168 1C12.6903 1 12.6903 1 12.6637 1H12.6372C12.6372 1 12.6372 1 12.6106 1L5.12389 4.9292C5.12389 4.9292 5.12389 4.9292 5.09735 4.9292H5.0708L0.0530973 9.17699C0.0265486 9.17699 0.0265488 9.20354 0.0265488 9.23009C0.0265488 9.23009 0.0265488 9.23009 0.0265488 9.25664C0.0265488 9.28319 0 9.30973 0 9.33628V15.9469V16.292V16.7965L10.2743 18.9735V19L17.469 13.5044V13.3186C17.469 13.3186 17.469 13.3186 17.469 13.292V6.86726C17.469 6.8938 17.469 6.8938 17.469 6.86726ZM10.0354 11.6195C9.10619 11.4336 8.41593 11.2743 8.33628 11.2743V11.1947C9.29204 11.3805 9.95575 11.5133 10.0354 11.5398C10.0354 11.5398 10.0354 11.5664 10.0354 11.6195ZM5.49558 5.16814C5.76106 5.0354 9.26549 3.20354 11.2832 2.16814C12.0531 1.76991 12.5841 1.47788 12.6637 1.45133C12.823 1.66372 15.9823 5.56637 16.8053 6.62832C16.9115 6.76106 16.9646 6.84071 16.9911 6.86726C16.9646 6.8938 16.885 6.9469 16.7788 7C15.6106 7.74336 10.5133 10.9823 10.2478 11.1416C10.1681 11.0354 9.29204 9.9469 8.33628 8.75221C8.20354 8.59292 8.09735 8.43363 7.9646 8.27434C7.38053 7.55752 6.79646 6.81416 6.34513 6.23009C6.26549 6.12389 6.18584 6.0177 6.10619 5.93805C5.78761 5.51327 5.54867 5.22124 5.49558 5.16814ZM8.33628 9.30973L9.74336 11.0619C9.55752 11.0088 9.02655 10.9292 8.33628 10.7699V9.30973ZM7.9646 8.85841V10.7168C5.54867 10.2124 1.59292 9.41593 0.716814 9.23009C1.64602 8.72566 4.16814 7.37168 6 6.38938L7.9646 8.85841ZM5.17699 5.38053L5.76106 6.09735L1.72566 8.27434C3.02655 7.15929 4.99115 5.51327 5.17699 5.38053ZM10.4071 18.4159L10.2743 18.5221H10.2478L0.424779 16.3982L0.371681 16.3717V16.3186V16.2124V16.1593C0.371681 16.1327 0.371681 16.0531 0.371681 15.9469C0.371681 15.3097 0.371681 10.3717 0.371681 9.52212C0.663717 9.57522 5.23009 10.5044 7.9646 11.0885V11.3009C7.77876 11.4071 1.06195 15.5752 0.39823 15.9735C0.451327 15.9735 0.557522 16 0.690266 16.0265C0.769912 16.0531 0.849558 16.0531 0.929204 16.0796C2.84071 16.4779 9 17.7788 10.0354 17.9911V11.9911V11.8053V11.6195H10.0619L10.4071 11.6991V11.885V12.0708V17.8584C11.3894 17.1416 15.0796 14.4071 16.5133 13.3451C16.5929 13.292 16.6726 13.2389 16.7257 13.1858C16.8053 13.1327 16.8584 13.0796 16.9115 13.0531C16.0619 12.8673 12.6637 12.177 10.4071 11.6991V11.4867L17.0973 7.23894C17.0973 8.16814 17.0973 11.9911 17.0973 12.9204V13.2655V13.3717L17.0177 13.4248L15 14.9381L10.4071 18.4159Z" fill="#414141"/>
<path d="M10.5 11.5L5.5 5.5L13 1.5L17 7L10.5 11.5Z" fill="#414141" stroke="#414141"/>
</svg>
