<svg width="25" height="32" viewBox="0 0 25 32" fill="none" xmlns="http://www.w3.org/2000/svg">
<path d="M21.4989 12.7989L22.2855 13.5761V10.8712C22.2855 10.7498 22.3853 10.6515 22.5084 10.6515H23.2058C23.3285 10.6515 23.4288 10.7498 23.4288 10.8712V13.5855L24.2154 12.8102C24.3023 12.7246 24.5305 12.7533 24.5305 12.9579L24.5309 13.8997C24.5309 14.1208 24.4202 14.2013 24.4202 14.2013L23.0259 15.5749C22.9524 15.6473 22.8388 15.6586 22.7538 15.6078C22.7299 15.597 22.7075 15.5819 22.6884 15.5627L21.2864 14.182C21.2864 14.182 21.1833 14.0888 21.1833 13.9256V12.9739C21.1838 12.6893 21.4115 12.7133 21.4989 12.7989ZM24.4479 17.7064V24.2955C24.4479 24.6008 24.1963 24.8487 23.8861 24.8487H21.8282C21.5184 24.8487 21.2664 24.6013 21.2664 24.2955V17.7143C21.2096 17.6358 21.1604 17.5295 21.0988 17.4015C20.9776 17.0783 21.1251 16.8746 21.3891 16.8746H24.2951C24.5591 16.8746 24.7405 17.1122 24.6369 17.3465C24.5539 17.5205 24.5056 17.6259 24.4479 17.7064ZM24.646 26.315C24.646 28.2277 22.8278 29.1864 21.7523 29.1864H21.4249C20.8354 29.1864 20.8864 29.6841 20.8864 29.6841V32H20.2807H16.0056H15.3998V29.7439C15.3998 29.1987 14.8762 29.1864 14.8762 29.1864H14.3917C12.3611 29.1864 11.31 27.5649 11.31 25.5637V24.7118C11.31 24.7118 11.3491 24.0382 12.0327 24.0382H19.6878C20.2024 24.0382 20.3442 24.2019 20.4984 24.4103C20.6115 24.6135 20.8459 24.9917 20.8459 24.9917C21.0645 25.3097 21.0965 25.4475 21.6435 25.4475H23.814C24.7095 25.4475 24.646 26.315 24.646 26.315ZM7.59194 11.5594C7.89123 11.8153 8.16618 12.0547 8.16618 12.0547C8.46595 12.3342 8.62443 12.7895 8.19005 13.2016L7.94851 13.4237C7.51938 13.8292 7.20958 13.9044 6.80289 13.7403C6.80289 13.7403 5.34126 13.012 4.79614 12.7331C4.6052 12.6423 4.367 12.5205 4.30543 12.4889C2.62184 11.5646 2.26431 11.1276 1.15591 9.9628C1.07047 9.87389 0.898626 9.72288 0.849459 9.36207C0.548256 7.4343 0.627972 5.34659 1.02226 2.94886C1.13157 2.2804 1.25377 1.65427 1.41129 0.935005C1.48098 0.659811 1.72777 0.451886 2.02898 0.442007L9.23686 0.0026368C9.62446 -0.0260587 9.82543 0.188922 9.82543 0.188922L13.4193 2.91499C13.722 3.1201 13.9783 3.90475 13.8356 4.26462C13.6871 4.59251 13.2976 4.74022 12.9649 4.59439L9.77053 2.94981C9.46551 2.78986 9.20918 3.20054 9.20918 3.20054L19.8468 9.01349C20.2224 9.2186 20.3585 9.68525 20.1504 10.0555L19.9981 10.326C19.79 10.6962 19.3164 10.8298 18.9408 10.6251L12.2904 7.4343C12.6561 7.74854 12.9821 8.0322 12.9821 8.0322C13.3716 8.39489 13.6208 8.92176 13.121 9.4745L12.6126 9.96797C12.0551 10.4953 11.7596 10.4986 11.2307 10.285L10.056 9.72665C10.3176 9.97926 10.5362 10.1698 10.5362 10.1698C10.9047 10.5127 11.1591 10.9968 10.6861 11.5199L10.183 12.0025C9.65597 12.5016 9.43353 12.4268 8.93327 12.225L7.59575 11.5556L7.59194 11.5594Z" fill="#FF9500"/>
</svg>
