<svg width="48" height="47" viewBox="0 0 48 47" fill="none" xmlns="http://www.w3.org/2000/svg">
<path d="M40.4761 43.0979V46.2484C40.4761 46.4487 40.3977 46.6399 40.2565 46.7795C40.1176 46.9212 39.9272 47 39.73 47H7.33951C6.92724 47 6.59114 46.6625 6.59114 46.2484V43.0979C6.59114 41.6892 7.72938 40.5483 9.132 40.5483H37.9375C39.3401 40.5483 40.4761 41.6892 40.4761 43.0979ZM32.4703 4.23732C32.4703 4.23972 32.4733 4.24079 32.4749 4.23897C32.6041 4.0889 32.6697 3.8953 32.6564 3.6995C32.6452 3.49922 32.5533 3.31245 32.4032 3.18193C30.0819 1.13189 27.0952 0 24.0029 0C20.9105 0 17.9239 1.13189 15.6025 3.18193C15.3449 3.46547 15.3404 3.89754 15.5936 4.18558C15.849 4.47137 16.2769 4.52088 16.5884 4.29809C18.6363 2.4866 21.2736 1.48745 24.0027 1.48745C26.7319 1.48745 29.369 2.4866 31.4171 4.29809C31.7246 4.5689 32.1917 4.54144 32.4656 4.23565C32.4672 4.23386 32.4702 4.23493 32.4703 4.23732ZM29.8958 7.24294C29.8959 7.24335 29.8955 7.24374 29.8951 7.24374C29.8946 7.24374 29.8943 7.24307 29.8946 7.24265C30.1647 6.92985 30.1308 6.4603 29.822 6.18836C28.2177 4.75714 26.1474 3.96727 24.0029 3.96727C21.8583 3.96727 19.7882 4.75714 18.1837 6.18836C18.0045 6.30988 17.8879 6.50115 17.8633 6.71718C17.8364 6.93096 17.9036 7.14474 18.047 7.30674C18.1904 7.46874 18.3943 7.55878 18.6094 7.55653C18.8245 7.55653 19.0284 7.46202 19.1696 7.29774C21.9278 4.84041 26.0774 4.84041 28.8358 7.29774C29.1455 7.56847 29.6147 7.5411 29.8887 7.23776C29.8907 7.23558 29.8943 7.23649 29.895 7.23936L29.8958 7.24294ZM29.8958 7.24294C29.8959 7.24335 29.8955 7.24374 29.8951 7.24374C29.8946 7.24374 29.8943 7.24307 29.8946 7.24265C30.1647 6.92985 30.1308 6.4603 29.822 6.18836C28.2177 4.75714 26.1474 3.96727 24.0029 3.96727C21.8583 3.96727 19.7882 4.75714 18.1837 6.18836C18.0045 6.30988 17.8879 6.50115 17.8633 6.71718C17.8364 6.93096 17.9036 7.14474 18.047 7.30674C18.1904 7.46874 18.3943 7.55878 18.6094 7.55653C18.8245 7.55653 19.0284 7.46202 19.1696 7.29774C21.9278 4.84041 26.0774 4.84041 28.8358 7.29774C29.1455 7.56847 29.6147 7.5411 29.8887 7.23776C29.8907 7.23558 29.8943 7.23649 29.895 7.23936L29.8958 7.24294ZM27.3147 10.2427C27.3147 10.2431 27.3144 10.2434 27.314 10.2434C27.3134 10.2434 27.3131 10.2427 27.3135 10.2423C27.4451 10.0961 27.5141 9.90084 27.503 9.70332C27.4918 9.50529 27.4021 9.31851 27.2543 9.188C25.408 7.51379 22.5982 7.51379 20.752 9.188C20.5817 9.31176 20.4696 9.50529 20.4472 9.71682C20.4226 9.92835 20.492 10.1399 20.6332 10.2974C20.7744 10.4572 20.976 10.5472 21.1889 10.5472C21.4017 10.5472 21.6034 10.4572 21.7445 10.2974C23.0284 9.13849 24.9777 9.13849 26.2616 10.2974C26.3961 10.4234 26.5731 10.4932 26.7568 10.4909C26.9689 10.4865 27.1661 10.3921 27.3025 10.2328C27.3062 10.2284 27.3135 10.2306 27.314 10.2363L27.3147 10.2427ZM27.3147 10.2427C27.3147 10.2431 27.3144 10.2434 27.314 10.2434C27.3134 10.2434 27.3131 10.2427 27.3135 10.2423C27.4451 10.0961 27.5141 9.90084 27.503 9.70332C27.4918 9.50529 27.4021 9.31851 27.2543 9.188C25.408 7.51379 22.5982 7.51379 20.752 9.188C20.5817 9.31176 20.4696 9.50529 20.4472 9.71682C20.4226 9.92835 20.492 10.1399 20.6332 10.2974C20.7744 10.4572 20.976 10.5472 21.1889 10.5472C21.4017 10.5472 21.6034 10.4572 21.7445 10.2974C23.0284 9.13849 24.9777 9.13849 26.2616 10.2974C26.3961 10.4234 26.5731 10.4932 26.7568 10.4909C26.9689 10.4865 27.1661 10.3921 27.3025 10.2328C27.3062 10.2284 27.3135 10.2306 27.314 10.2363L27.3147 10.2427ZM47.3058 20.6376C47.7158 20.6084 48.0273 20.2528 47.9981 19.8388C47.8032 16.7401 46.4879 13.8193 44.3033 11.6204C42.1187 9.42409 39.2127 8.10089 36.1273 7.8984C35.715 7.86914 35.3565 8.18194 35.3296 8.59597C35.3005 9.01003 35.612 9.37011 36.0242 9.39707C38.751 9.57485 41.3188 10.7405 43.2481 12.6803C45.1795 14.6201 46.3424 17.1989 46.5171 19.9355C46.5418 20.3293 46.8667 20.6353 47.2588 20.6376L47.3058 20.6376ZM43.3735 20.9189C43.7858 20.8897 44.0972 20.5341 44.0726 20.1223C43.9426 17.9732 43.0329 15.9457 41.5183 14.4223C40.0037 12.9011 37.9848 11.9852 35.8451 11.8524C35.6412 11.8254 35.435 11.8862 35.2759 12.019C35.1169 12.1495 35.0205 12.3408 35.0071 12.5478C34.9936 12.7548 35.0653 12.9573 35.2065 13.1081C35.3476 13.2611 35.5448 13.3467 35.751 13.3467C39.4278 13.5762 42.3605 16.5218 42.5848 20.217C42.6117 20.6131 42.9388 20.9214 43.3332 20.9191L43.3735 20.9189ZM43.3735 20.9189C43.7858 20.8897 44.0972 20.5341 44.0726 20.1223C43.9426 17.9732 43.0329 15.9457 41.5183 14.4223C40.0037 12.9011 37.9848 11.9852 35.8451 11.8524C35.6412 11.8254 35.435 11.8862 35.2759 12.019C35.1169 12.1495 35.0205 12.3408 35.0071 12.5478C34.9936 12.7548 35.0653 12.9573 35.2065 13.1081C35.3476 13.2611 35.5448 13.3467 35.751 13.3467C39.4278 13.5762 42.3605 16.5218 42.5848 20.217C42.6117 20.6131 42.9388 20.9214 43.3332 20.9191L43.3735 20.9189ZM39.4467 21.2004C39.4473 21.2003 39.4479 21.2008 39.4479 21.2014C39.4479 21.202 39.4484 21.2024 39.449 21.2024C39.854 21.1681 40.1604 20.8173 40.1358 20.4104C40.0013 17.917 38.0228 15.9254 35.5403 15.7882C35.1325 15.7725 34.7829 16.0875 34.7583 16.4971C34.7448 16.6951 34.812 16.8909 34.942 17.0394C35.0742 17.1879 35.2602 17.278 35.4573 17.2892C37.1871 17.377 38.574 18.7609 38.6659 20.5004C38.6861 20.8956 39.0096 21.2079 39.405 21.207C39.4067 21.207 39.4085 21.2069 39.4102 21.2066L39.4467 21.2004ZM39.4467 21.2004C39.4473 21.2003 39.4479 21.2008 39.4479 21.2014C39.4479 21.202 39.4484 21.2024 39.449 21.2024C39.854 21.1681 40.1604 20.8173 40.1358 20.4104C40.0013 17.917 38.0228 15.9254 35.5403 15.7882C35.1325 15.7725 34.7829 16.0875 34.7583 16.4971C34.7448 16.6951 34.812 16.8909 34.942 17.0394C35.0742 17.1879 35.2602 17.278 35.4573 17.2892C37.1871 17.377 38.574 18.7609 38.6659 20.5004C38.6861 20.8956 39.0096 21.2079 39.405 21.207C39.4067 21.207 39.4085 21.2069 39.4102 21.2066L39.4467 21.2004ZM1.48949 19.9355C1.6665 17.1992 2.82936 14.6225 4.76077 12.685C6.68996 10.7474 9.25767 9.57955 11.9824 9.40402C12.3946 9.37477 12.7061 9.01696 12.6769 8.60292C12.6501 8.18886 12.2915 7.87608 11.8793 7.9031C8.79397 8.10338 5.88807 9.42655 3.70094 11.6229C1.51381 13.8192 0.198837 16.7401 0.00169105 19.8389C-0.0117529 20.0392 0.0554656 20.235 0.18542 20.3835C0.317617 20.5343 0.503589 20.6265 0.700763 20.6378H0.754538C1.14441 20.6333 1.46488 20.3271 1.48949 19.9355ZM5.42179 20.2168C5.64585 16.5218 8.57881 13.5763 12.2556 13.3465C12.4618 13.3465 12.6589 13.261 12.8001 13.108C12.9413 12.9572 13.013 12.7547 12.9995 12.5476C12.9861 12.3406 12.8897 12.1493 12.7306 12.0188C12.5716 11.886 12.3654 11.8253 12.1615 11.8523C10.0195 11.985 8.00071 12.8987 6.48606 14.4221C4.96918 15.9433 4.05946 17.9709 3.9273 20.1222C3.90266 20.534 4.2141 20.8895 4.6264 20.9188H4.67346C5.0678 20.921 5.39489 20.6129 5.42179 20.2168ZM5.42179 20.2168C5.64585 16.5218 8.57881 13.5763 12.2556 13.3465C12.4618 13.3465 12.6589 13.261 12.8001 13.108C12.9413 12.9572 13.013 12.7547 12.9995 12.5476C12.9861 12.3406 12.8897 12.1493 12.7306 12.0188C12.5716 11.886 12.3654 11.8253 12.1615 11.8523C10.0195 11.985 8.00071 12.8987 6.48606 14.4221C4.96918 15.9433 4.05946 17.9709 3.9273 20.1222C3.90266 20.534 4.2141 20.8895 4.6264 20.9188H4.67346C5.0678 20.921 5.39489 20.6129 5.42179 20.2168ZM9.34061 20.4936C9.43471 18.7631 10.8127 17.3815 12.538 17.2892C12.9502 17.2644 13.2639 16.9089 13.2393 16.4948C13.2147 16.0808 12.8606 15.7635 12.4484 15.7882C9.97248 15.9345 8.00298 17.9237 7.87076 20.4103C7.84612 20.8221 8.15981 21.1754 8.56986 21.2024H8.61692C9.00454 21.1934 9.31826 20.8874 9.34063 20.5003L9.34061 20.4936ZM9.34061 20.4936C9.43471 18.7631 10.8127 17.3815 12.538 17.2892C12.9502 17.2644 13.2639 16.9089 13.2393 16.4948C13.2147 16.0808 12.8606 15.7635 12.4484 15.7882C9.97248 15.9345 8.00298 17.9237 7.87076 20.4103C7.84612 20.8221 8.15981 21.1754 8.56986 21.2024H8.61692C9.00454 21.1934 9.31826 20.8874 9.34063 20.5003L9.34061 20.4936ZM9.13223 39.0475H37.9377C38.3236 39.0475 38.6772 38.7613 38.6772 38.3754V38.1474C38.6772 36.7387 37.5411 35.5977 36.1385 35.5977H10.9295C9.52687 35.5977 8.39086 36.7387 8.39086 38.1474V38.3571C8.39086 38.7469 8.74253 39.0404 9.13223 39.0475ZM28.9799 27.4608C28.9821 27.0062 28.7132 26.5944 28.2942 26.4189C27.8775 26.2433 27.3958 26.3378 27.0753 26.6596C26.7549 26.9792 26.6586 27.463 26.8311 27.8838C27.0036 28.3024 27.4114 28.5769 27.864 28.5769C28.478 28.5769 28.9776 28.0773 28.9799 27.4608ZM20.9495 27.4608C20.9495 27.0107 20.6806 26.6056 20.2683 26.4323C19.8561 26.2568 19.3788 26.3491 19.0584 26.6664C18.7402 26.9814 18.6416 27.4585 18.8074 27.8748C18.9733 28.2934 19.3721 28.5701 19.8202 28.5769C20.1182 28.5814 20.405 28.4667 20.6178 28.2574C20.8307 28.0459 20.9495 27.76 20.9495 27.4608ZM23.8533 17.2105C19.6544 17.2105 15.6796 19.1255 13.0536 22.4178C10.5521 25.554 9.53075 29.6173 10.2337 33.5535C10.2932 33.8863 10.6095 34.101 10.9475 34.0971H20.0417C20.9589 34.0971 21.7025 33.3536 21.7025 32.4364C21.701 31.8362 21.5615 31.2501 21.2998 30.7215C21.0423 30.2016 20.4005 30.0966 19.8204 30.1006C18.7673 30.1006 17.8172 29.4637 17.4139 28.4871C17.0106 27.5082 17.2347 26.3831 17.9786 25.636C18.7247 24.8866 19.845 24.6638 20.8174 25.0689C21.7921 25.4717 22.4262 26.4258 22.4262 27.4857C22.4262 28.4674 22.3854 29.5696 22.7481 30.4819C22.9964 31.1064 23.1283 31.7766 23.132 32.4589V33.4172C23.132 33.8064 23.4475 34.1219 23.8366 34.1219C24.2258 34.1219 24.5413 33.8064 24.5413 33.4172V32.4364C24.541 32.3647 24.5422 32.2932 24.5448 32.2218C24.6184 30.1699 24.5345 27.3613 25.8655 25.7979C26.643 24.8797 27.9448 24.6187 29.0158 25.161C30.0846 25.7056 30.647 26.9141 30.3736 28.0864C30.1003 29.2589 29.0628 30.0915 27.8641 30.1005C27.3273 30.0804 26.7366 30.1812 26.4901 30.6586C26.2086 31.204 26.0582 31.8135 26.0582 32.4363C26.0582 33.3547 26.8028 34.0991 27.7212 34.0989L36.1386 34.097C36.7947 34.0934 37.466 33.7321 37.5617 33.083C38.1176 29.3154 37.104 25.4619 34.7248 22.4496C32.0943 19.1214 28.0859 17.1881 23.8533 17.2105Z" fill="#FF4D85"/>
</svg>
