<svg width="48" height="54" viewBox="0 0 48 54" fill="none" xmlns="http://www.w3.org/2000/svg">
<path d="M12.4281 7.91529C12.4281 10.5283 10.3217 12.6475 7.72386 12.6475C5.12539 12.6475 3.01906 10.5289 3.01906 7.91529C3.01906 5.30286 5.12539 3.18363 7.72386 3.18363C10.3223 3.18424 12.4281 5.30286 12.4281 7.91529ZM38.4342 50.1306C38.8799 51.1386 41.5535 50.9898 42.2962 50.1306C43.0376 49.2707 47.1233 20.8868 47.2557 18.0554C47.3875 15.224 43.8489 14.3942 43.8489 14.3942C38.2117 13.9394 35.8125 14.5838 35.8125 14.5838C35.8125 14.5838 32.1958 15.284 32.5441 18.0548C32.8925 20.8256 37.9016 48.9281 38.4342 50.1306ZM44.3804 7.91529C44.3804 10.5283 42.2747 12.6475 39.6762 12.6475C37.0777 12.6475 34.9714 10.5289 34.9714 7.91529C34.9714 5.30286 37.0772 3.18363 39.6762 3.18363C42.2747 3.18424 44.3804 5.30286 44.3804 7.91529ZM25.4693 1.58762C25.4693 0.711008 24.7631 0 23.8903 0C23.0182 0 22.3113 0.711008 22.3113 1.58762V52.4118C22.3113 53.289 23.0182 54 23.8903 54C24.7625 54 25.4693 53.2884 25.4693 52.4118V1.58762ZM14.0554 13.9394C14.0554 13.9394 10.2436 14.2226 5.56801 16.4606C1.45198 18.4328 0.472485 22.178 0.276824 25.5297C0.126499 28.0953 0.955671 31.2333 2.24178 35.1766C2.24178 35.1766 1.78842 28.1739 10.2114 23.6877C16.1707 20.513 14.3889 16.181 14.0554 13.9394ZM14.1664 23.0715C14.1664 23.0715 11.1026 24.9201 7.76741 27.9219C5.0389 30.3777 4.86829 31.4499 3.79037 34.318C3.07573 36.2176 2.22985 39.2776 6.02615 46.3457C6.97582 48.1133 7.50434 48.7631 7.92847 49.5695C8.42955 50.5218 10.379 49.4015 10.1565 48.7853C10.0432 48.4739 9.46691 46.6265 9.43172 46.4321C9.15374 44.9195 6.92511 37.861 9.71507 35.245C14.8661 30.4155 14.3996 28.5195 14.1664 23.0715Z" fill="#A449EB"/>
</svg>
