<svg width="26" height="26" viewBox="0 0 26 26" fill="none" xmlns="http://www.w3.org/2000/svg">
<g clip-path="url(#clip0_386_523)">
<path d="M6.10567 4.57589L5.33976 5.3418C4.33247 6.34656 3.53362 7.54042 2.98909 8.85482C2.44455 10.1692 2.16506 11.5782 2.16667 13.001C2.16478 14.4241 2.44413 15.8335 2.98867 17.1483C3.53321 18.4631 4.33221 19.6573 5.33976 20.6623L6.10567 21.4282L4.57384 22.9601L3.80792 22.1941C2.5993 20.9881 1.64075 19.5553 0.987291 17.9778C0.333827 16.4004 -0.00168642 14.7095 6.37376e-06 13.0021C6.37376e-06 9.41189 1.45601 6.1608 3.80792 3.80889L4.57384 3.04297L6.10567 4.57589ZM21.4251 3.04297L22.191 3.80889C23.4 5.01496 24.3588 6.44794 25.0124 8.02556C25.6661 9.60318 26.0017 11.2944 26 13.0021C26 16.5911 24.544 19.8433 22.1932 22.1941L21.4262 22.9601L19.8943 21.4282L20.6603 20.6623C21.6678 19.6573 22.4668 18.4631 23.0113 17.1483C23.5559 15.8335 23.8352 14.4241 23.8333 13.001C23.835 11.578 23.5554 10.1687 23.0106 8.85411C22.4659 7.53951 21.6668 6.34551 20.6592 5.34072L19.8933 4.5748L21.4251 3.04297ZM9.16934 7.63955L8.40342 8.40547C7.79904 9.00829 7.31974 9.72461 6.99309 10.5133C6.66643 11.3019 6.49886 12.1473 6.50001 13.001C6.50001 14.7971 7.22584 16.42 8.40342 17.5976L9.16934 18.3635L7.63751 19.8953L6.87159 19.1294C6.06587 18.3253 5.42687 17.37 4.99129 16.3183C4.55571 15.2666 4.33212 14.1393 4.33334 13.001C4.33334 10.609 5.30509 8.44013 6.87159 6.87363L7.63751 6.10664L9.16934 7.63955ZM18.3614 6.10664L19.1273 6.87363C19.9331 7.67751 20.5722 8.6326 21.008 9.68408C21.4438 10.7356 21.6676 11.8628 21.6667 13.001C21.6667 15.3951 20.6949 17.5618 19.1273 19.1294L18.3614 19.8953L16.8296 18.3635L17.5955 17.5976C18.2002 16.9947 18.6798 16.2782 19.0066 15.4894C19.3335 14.7005 19.5012 13.8548 19.5 13.001C19.501 12.1473 19.3333 11.3018 19.0064 10.5131C18.6796 9.72448 18.2001 9.0082 17.5955 8.40547L16.8296 7.63955L18.3614 6.10664ZM13 10.8343C12.4254 10.8343 11.8743 11.0626 11.4679 11.4689C11.0616 11.8752 10.8333 12.4263 10.8333 13.001C10.8333 13.5756 11.0616 14.1267 11.4679 14.533C11.8743 14.9394 12.4254 15.1676 13 15.1676C13.5746 15.1676 14.1257 14.9394 14.5321 14.533C14.9384 14.1267 15.1667 13.5756 15.1667 13.001C15.1667 12.4263 14.9384 11.8752 14.5321 11.4689C14.1257 11.0626 13.5746 10.8343 13 10.8343ZM8.66667 13.001C8.66688 12.1905 8.89435 11.3964 9.32325 10.7088C9.75215 10.0211 10.3653 9.46755 11.093 9.1109C11.8208 8.75425 12.6339 8.60883 13.4402 8.69115C14.2464 8.77347 15.0134 9.08024 15.6541 9.57661C16.2947 10.073 16.7833 10.739 17.0644 11.4992C17.3455 12.2593 17.4077 13.083 17.2441 13.8768C17.0805 14.6705 16.6976 15.4025 16.1389 15.9895C15.5802 16.5766 14.868 16.9952 14.0833 17.1978V22.5115H11.9167V17.1978C10.9863 16.9576 10.1622 16.415 9.57387 15.6552C8.98555 14.8955 8.66643 13.9618 8.66667 13.001Z" fill="#F12323"/>
</g>
<defs>
<clipPath id="clip0_386_523">
<rect width="26" height="26" fill="white"/>
</clipPath>
</defs>
</svg>
