<svg width="25" height="27" viewBox="0 0 25 27" fill="none" xmlns="http://www.w3.org/2000/svg">
<path d="M3.83352 8H20.8335C20.9661 8 21.0933 7.94732 21.1871 7.85355C21.2808 7.75979 21.3335 7.63261 21.3335 7.5V2C21.3335 1.46957 21.1228 0.960859 20.7477 0.585786C20.3727 0.210714 19.864 0 19.3335 0H5.33352C4.80309 0 4.29438 0.210714 3.91931 0.585786C3.54424 0.960859 3.33352 1.46957 3.33352 2V7.5C3.33352 7.63261 3.3862 7.75979 3.47997 7.85355C3.57374 7.94732 3.70092 8 3.83352 8ZM7.33352 3H9.29977C9.55819 2.99618 9.80847 3.09037 10.0003 3.2636C10.192 3.43684 10.3111 3.67628 10.3335 3.93375C10.3426 4.07054 10.3235 4.20773 10.2773 4.33681C10.2311 4.46589 10.1589 4.58409 10.0651 4.68409C9.97134 4.78408 9.85801 4.86372 9.73215 4.91807C9.6063 4.97241 9.47061 5.0003 9.33352 5H7.36727C7.10886 5.00382 6.85858 4.90963 6.66679 4.7364C6.475 4.56316 6.35593 4.32372 6.33352 4.06625C6.32444 3.92946 6.34358 3.79227 6.38975 3.66319C6.43593 3.53411 6.50814 3.41591 6.60192 3.31591C6.6957 3.21592 6.80904 3.13628 6.9349 3.08193C7.06075 3.02759 7.19644 2.9997 7.33352 3ZM24.3335 11.0075C24.3345 10.8755 24.3094 10.7447 24.2596 10.6225C24.2098 10.5003 24.1363 10.3892 24.0433 10.2955C23.9503 10.2019 23.8398 10.1276 23.7179 10.0768C23.5961 10.0261 23.4655 10 23.3335 10H1.33352C1.20157 10 1.07092 10.0261 0.9491 10.0768C0.827284 10.1276 0.71671 10.2019 0.623753 10.2955C0.530795 10.3892 0.457293 10.5003 0.407481 10.6225C0.35767 10.7447 0.332535 10.8755 0.333524 11.0075C0.336671 13.201 0.940383 15.3519 2.07918 17.2266C3.21797 19.1014 4.84837 20.6286 6.79352 21.6425L6.35977 24.6763C6.29431 25.104 6.36562 25.5415 6.56352 25.9263C6.73252 26.2497 6.98679 26.5207 7.29878 26.71C7.61078 26.8992 7.96861 26.9995 8.33352 27H16.291C16.7254 27.0059 17.1506 26.8747 17.506 26.625C17.8013 26.4114 18.0326 26.1211 18.1749 25.7856C18.3172 25.4501 18.3652 25.082 18.3135 24.7213L17.8735 21.6462C19.8192 20.632 21.45 19.1043 22.5888 17.2288C23.7277 15.3533 24.3311 13.2017 24.3335 11.0075ZM8.33352 25L8.69977 22.4375C11.0642 23.1875 13.6028 23.1875 15.9673 22.4375L16.3335 25H8.33352Z" fill="#1B7AA6"/>
</svg>
