<svg width="26" height="30" viewBox="0 0 26 30" fill="none" xmlns="http://www.w3.org/2000/svg">
<path d="M6.73167 4.39738C6.73167 5.84906 5.56647 7.02641 4.12934 7.02641C2.69189 7.02641 1.52669 5.8494 1.52669 4.39738C1.52669 2.94603 2.69189 1.76869 4.12934 1.76869C5.5668 1.76902 6.73167 2.94603 6.73167 4.39738ZM21.1181 27.8503C21.3646 28.4103 22.8436 28.3277 23.2544 27.8503C23.6646 27.3726 25.9248 11.6038 25.998 10.0308C26.0709 8.45776 24.1134 7.99676 24.1134 7.99676C20.995 7.74409 19.6677 8.10209 19.6677 8.10209C19.6677 8.10209 17.667 8.49109 17.8597 10.0304C18.0524 11.5698 20.8234 27.1823 21.1181 27.8503ZM24.4074 4.39738C24.4074 5.84906 23.2426 7.02641 21.8051 7.02641C20.3677 7.02641 19.2025 5.8494 19.2025 4.39738C19.2025 2.94603 20.3673 1.76869 21.8051 1.76869C23.2426 1.76902 24.4074 2.94603 24.4074 4.39738ZM13.946 0.88201C13.946 0.395004 13.5553 0 13.0725 0C12.59 0 12.199 0.395004 12.199 0.88201V29.1177C12.199 29.605 12.59 30 13.0725 30C13.5549 30 13.946 29.6047 13.946 29.1177V0.88201ZM7.6319 7.74409C7.6319 7.74409 5.52324 7.90142 2.93675 9.14477C0.659793 10.2404 0.117944 12.3211 0.00970662 14.1832C-0.0734517 15.6085 0.385239 17.3519 1.09671 19.5426C1.09671 19.5426 0.84591 15.6522 5.50542 13.1598C8.80205 11.3961 7.81636 8.98943 7.6319 7.74409ZM7.69327 12.8175C7.69327 12.8175 5.99843 13.8445 4.15343 15.5122C2.64404 16.8765 2.54967 17.4722 1.95337 19.0655C1.55804 20.1209 1.09011 21.8209 3.19018 25.7476C3.71553 26.7296 4.00791 27.0906 4.24253 27.5386C4.51973 28.0676 5.59815 27.4453 5.47506 27.103C5.41236 26.93 5.09359 25.9036 5.07412 25.7956C4.92034 24.9553 3.68748 21.0339 5.23086 19.5806C8.08036 16.8975 7.8223 15.8442 7.69327 12.8175Z" fill="#A449EB"/>
</svg>
