<svg width="43" height="56" viewBox="0 0 43 56" fill="none" xmlns="http://www.w3.org/2000/svg">
<path d="M36.5855 22.3982L37.9622 23.7581V19.0246C37.9622 18.8122 38.1368 18.6401 38.3523 18.6401H39.5727C39.7874 18.6401 39.9629 18.8122 39.9629 19.0246V23.7746L41.3395 22.4179C41.4915 22.2681 41.8908 22.3183 41.8908 22.6764L41.8917 24.3245C41.8917 24.7114 41.6979 24.8522 41.6979 24.8522L39.2578 27.2561C39.1292 27.3828 38.9304 27.4026 38.7817 27.3137C38.7399 27.2947 38.7006 27.2684 38.6672 27.2346L36.2138 24.8185C36.2138 24.8185 36.0334 24.6555 36.0334 24.3698V22.7044C36.0342 22.2063 36.4327 22.2483 36.5855 22.3982ZM41.7463 30.9861V42.5171C41.7463 43.0514 41.3061 43.4852 40.7631 43.4852H37.1619C36.6198 43.4852 36.1787 43.0522 36.1787 42.5171V31.0001C36.0793 30.8626 35.9933 30.6766 35.8855 30.4527C35.6733 29.8871 35.9314 29.5306 36.3934 29.5306H41.479C41.941 29.5306 42.2584 29.9464 42.0771 30.3563C41.9318 30.6609 41.8474 30.8453 41.7463 30.9861ZM42.093 46.0512C42.093 49.3985 38.9111 51.0763 37.0291 51.0763H36.4561C35.4244 51.0763 35.5138 51.9472 35.5138 51.9472V56H34.4537H26.9723H25.9122V52.0518C25.9122 51.0977 24.9959 51.0763 24.9959 51.0763H24.148C20.5944 51.0763 18.755 48.2386 18.755 44.7365V43.2457C18.755 43.2457 18.8235 42.0668 20.0197 42.0668H33.4162C34.3167 42.0668 34.5648 42.3533 34.8346 42.718C35.0326 43.0736 35.4428 43.7355 35.4428 43.7355C35.8254 44.292 35.8813 44.5332 36.8386 44.5332H40.637C42.2041 44.5332 42.093 46.0512 42.093 46.0512ZM12.2484 20.2289C12.7722 20.6768 13.2533 21.0958 13.2533 21.0958C13.7779 21.5848 14.0553 22.3817 13.2951 23.1028L12.8724 23.4914C12.1214 24.201 11.5793 24.3328 10.8676 24.0454C10.8676 24.0454 8.30973 22.7711 7.35576 22.2829C7.02162 22.124 6.60478 21.9108 6.49702 21.8556C3.55074 20.238 2.92506 19.4732 0.985374 17.4349C0.835846 17.2793 0.53512 17.015 0.449078 16.3836C-0.0780281 13.01 0.0614756 9.35652 0.751476 5.16051C0.942771 3.9907 1.15662 2.89498 1.43229 1.63626C1.55425 1.15467 1.98612 0.790801 2.51323 0.773513L15.127 0.0046144C15.8053 -0.0456027 16.157 0.330614 16.157 0.330614L22.4464 5.10124C22.976 5.46017 23.4246 6.83332 23.1748 7.46309C22.915 8.03688 22.2334 8.29538 21.6511 8.04018L16.061 5.16216C15.5272 4.88226 15.0786 5.60094 15.0786 5.60094L33.6944 15.7736C34.3518 16.1325 34.5899 16.9492 34.2257 17.5971L33.9592 18.0704C33.595 18.7183 32.7663 18.9521 32.1089 18.594L20.4708 13.01C21.1107 13.5599 21.6812 14.0564 21.6812 14.0564C22.3628 14.6911 22.7989 15.6131 21.9243 16.5804L21.0346 17.444C20.0589 18.3668 19.5419 18.3726 18.6163 17.9988L16.5605 17.0216C17.0183 17.4637 17.4009 17.7971 17.4009 17.7971C18.0457 18.3973 18.491 19.2444 17.6632 20.1598L16.7827 21.0044C15.8605 21.8779 15.4712 21.747 14.5957 21.3938L12.2551 20.2224L12.2484 20.2289Z" fill="#FF9500"/>
</svg>
