<svg width="18" height="13" viewBox="0 0 18 13" fill="none" xmlns="http://www.w3.org/2000/svg">
<path d="M10.6363 9.39471C13.106 10.7241 15.9177 9.72705 17.9314 7.73303C18.0644 7.62226 17.9884 7.31762 17.8364 7.34531C15.6707 7.76073 13.4859 8.25923 11.4912 6.98528C10.1423 6.18214 8.90746 4.88049 7.59661 3.91118C5.20288 2.36028 2.29622 2.91417 0.0734747 4.63124C-0.05951 4.74202 -0.0025166 5.04666 0.168464 5.01896C2.4482 4.57585 4.89892 4.49276 6.7987 6.20983C7.97657 7.45609 9.13543 8.64696 10.6363 9.39471Z" fill="#FF9500"/>
<path d="M12.9377 11.6202C13.0539 11.5158 12.9958 11.255 12.8602 11.255C11.795 11.2028 10.7103 11.2289 9.74193 10.9159C8.28931 10.4464 7.20469 9.1161 6.02322 8.07274C4.29945 6.58594 1.87841 6.74244 0.0771662 7.94231C-0.0584116 8.02057 -0.000306838 8.28141 0.135271 8.28141C1.78157 8.33358 3.48598 8.54225 4.70618 9.84646C5.48091 10.8116 6.27501 11.7245 7.34026 12.3505C9.14151 13.5243 11.3882 13.0026 12.9377 11.6202Z" fill="#FF9500"/>
<path d="M12.5434 4.6146C14.3881 5.49451 16.5561 4.78569 17.9443 3.31917C18.0584 3.19696 17.9824 2.97698 17.8492 3.00143C16.7843 3.05031 15.7383 3.19696 14.7684 3.00143C13.3041 2.70812 12.144 1.58379 10.8889 0.72832C9.08223 -0.469337 6.72407 -0.102707 5.06956 1.19272C4.93644 1.29049 5.01251 1.53491 5.14563 1.53491C6.76211 1.4127 8.45466 1.43714 9.74784 2.53703C10.5846 3.36806 11.4214 4.12576 12.5434 4.6146Z" fill="#FF9500"/>
</svg>
