<svg width="18" height="15" viewBox="0 0 18 15" fill="none" xmlns="http://www.w3.org/2000/svg">
<path d="M15.75 13.4231C15.75 13.7087 15.6315 13.9826 15.4205 14.1846C15.2095 14.3865 14.9234 14.5 14.625 14.5H3.375C3.07663 14.5 2.79048 14.3865 2.5795 14.1846C2.36853 13.9826 2.25 13.7087 2.25 13.4231C2.25 13.1375 2.36853 12.8635 2.5795 12.6616C2.79048 12.4596 3.07663 12.3462 3.375 12.3462H14.625C14.9234 12.3462 15.2095 12.4596 15.4205 12.6616C15.6315 12.8635 15.75 13.1375 15.75 13.4231ZM15.75 8.03846H2.25C1.95163 8.03846 1.66548 8.15192 1.45451 8.35389C1.24353 8.55585 1.125 8.82977 1.125 9.11539C1.125 9.401 1.24353 9.67492 1.45451 9.87688C1.66548 10.0788 1.95163 10.1923 2.25 10.1923H15.75C16.0484 10.1923 16.3345 10.0788 16.5455 9.87688C16.7565 9.67492 16.875 9.401 16.875 9.11539C16.875 8.82977 16.7565 8.55585 16.5455 8.35389C16.3345 8.15192 16.0484 8.03846 15.75 8.03846ZM18 3.19231C17.9991 3.9061 17.7025 4.59041 17.1753 5.09513C16.648 5.59986 15.9332 5.88378 15.1875 5.88462H2.8125C2.06658 5.88462 1.35121 5.60096 0.823762 5.09606C0.296316 4.59115 0 3.90635 0 3.19231C0 2.47826 0.296316 1.79346 0.823762 1.28856C1.35121 0.783653 2.06658 0.5 2.8125 0.5H15.1875C15.9332 0.500838 16.648 0.78476 17.1753 1.28948C17.7025 1.79421 17.9991 2.47852 18 3.19231ZM15.75 3.19231C15.7499 3.04953 15.6906 2.91263 15.5851 2.81166C15.4797 2.7107 15.3367 2.65394 15.1875 2.65385H2.8125C2.66332 2.65385 2.52024 2.71058 2.41475 2.81156C2.30926 2.91254 2.25 3.0495 2.25 3.19231C2.25 3.33512 2.30926 3.47208 2.41475 3.57306C2.52024 3.67404 2.66332 3.73077 2.8125 3.73077H15.1875C15.3367 3.73067 15.4797 3.67391 15.5851 3.57295C15.6906 3.47199 15.7499 3.33509 15.75 3.19231Z" fill="#FF3B30"/>
</svg>
