<svg width="19" height="19" viewBox="0 0 19 19" fill="none" xmlns="http://www.w3.org/2000/svg">
<path d="M7.54206 17.491C7.5479 17.4915 7.5537 17.4918 7.55942 17.4918C7.60784 17.4917 7.65437 17.473 7.68934 17.4395C7.72431 17.406 7.74504 17.3604 7.74722 17.312C7.7494 17.2636 7.73287 17.2163 7.70105 17.1798C7.66923 17.1433 7.62458 17.1205 7.57637 17.116C7.28976 17.0897 7.00982 17.0555 6.74435 17.0143C6.53035 16.981 6.3232 16.9428 6.12863 16.9004C6.08007 16.8904 6.02952 16.8999 5.98796 16.9269C5.9464 16.954 5.91718 16.9963 5.90665 17.0448C5.89611 17.0932 5.90511 17.1438 5.93169 17.1857C5.95826 17.2276 6.00028 17.2572 6.04861 17.2683C6.25048 17.3122 6.46501 17.3519 6.68636 17.3864C6.95967 17.4288 7.24755 17.464 7.54206 17.491Z" fill="#32ADE6"/>
<path d="M9.03692 17.5574C9.10281 17.5574 9.16842 17.557 9.23374 17.5563C9.28368 17.556 9.33146 17.5359 9.36657 17.5003C9.40167 17.4648 9.42124 17.4168 9.42095 17.3669C9.42067 17.317 9.40056 17.2692 9.36505 17.2341C9.32954 17.199 9.28153 17.1794 9.2316 17.1797H9.22941C9.16557 17.1804 9.10141 17.1808 9.03692 17.1808C8.98698 17.1808 8.93909 17.2006 8.90378 17.2359C8.86847 17.2712 8.84863 17.3191 8.84863 17.3691C8.84863 17.419 8.86847 17.4669 8.90378 17.5022C8.93909 17.5375 8.98698 17.5573 9.03692 17.5573V17.5574Z" fill="#32ADE6"/>
<path d="M3.89844 15.9193C3.89844 16.3443 4.32723 16.7226 5.13846 17.0133C5.18547 17.0302 5.23725 17.0277 5.2824 17.0063C5.32755 16.985 5.36238 16.9466 5.37922 16.8996C5.39606 16.8526 5.39354 16.8008 5.37221 16.7557C5.35088 16.7105 5.31249 16.6757 5.26548 16.6588C4.64528 16.4367 4.27512 16.1601 4.27512 15.9193C4.27512 15.5804 4.95429 15.261 5.58989 15.0748C6.50833 14.8059 7.73288 14.6577 9.03794 14.6577C10.343 14.6577 11.5675 14.8059 12.486 15.0748C13.1216 15.261 13.8008 15.5805 13.8008 15.9193C13.8008 16.1615 13.4269 16.4393 12.8006 16.6623C12.101 16.9114 11.1212 17.0849 10.0413 17.1507C9.99246 17.1537 9.94666 17.1755 9.91363 17.2117C9.88061 17.2478 9.86296 17.2954 9.86443 17.3443C9.8659 17.3933 9.88637 17.4397 9.9215 17.4738C9.95664 17.5079 10.0037 17.527 10.0526 17.527C10.0565 17.527 10.0603 17.5269 10.0643 17.5266C12.1116 17.4017 14.1773 16.8563 14.1773 15.9193C14.1773 14.8553 11.5294 14.2812 9.03794 14.2812C6.54648 14.2812 3.89844 14.8553 3.89844 15.9193Z" fill="#32ADE6"/>
<path d="M9.22565 16.3969C9.22565 16.347 9.20581 16.2991 9.1705 16.2638C9.13519 16.2284 9.0873 16.2086 9.03737 16.2086C8.81551 16.2093 8.59386 16.195 8.37393 16.1658C8.32446 16.159 8.27432 16.1722 8.23456 16.2024C8.19479 16.2326 8.16865 16.2774 8.16189 16.3269C8.15513 16.3763 8.1683 16.4265 8.1985 16.4662C8.22871 16.506 8.27347 16.5321 8.32295 16.5389C8.55977 16.5704 8.79846 16.5859 9.03737 16.5852C9.0873 16.5852 9.13519 16.5653 9.1705 16.53C9.20581 16.4947 9.22565 16.4468 9.22565 16.3969Z" fill="#32ADE6"/>
<path d="M9.66478 16.1719C9.65042 16.1737 9.63598 16.1754 9.62144 16.1771C9.57375 16.1827 9.53 16.2063 9.49913 16.2431C9.46827 16.2799 9.45262 16.3271 9.45539 16.375C9.45816 16.4229 9.47914 16.468 9.51404 16.501C9.54894 16.534 9.59512 16.5524 9.64313 16.5524C9.65054 16.5524 9.65795 16.552 9.66531 16.5511C9.68116 16.5493 9.6969 16.5474 9.71249 16.5453C9.73733 16.5426 9.76138 16.5349 9.78322 16.5228C9.80506 16.5106 9.82427 16.4943 9.83973 16.4746C9.85518 16.455 9.86657 16.4325 9.87323 16.4084C9.8799 16.3843 9.8817 16.3591 9.87853 16.3343C9.87536 16.3096 9.86729 16.2856 9.85479 16.264C9.84229 16.2424 9.8256 16.2234 9.80571 16.2083C9.78581 16.1932 9.7631 16.1822 9.73891 16.1759C9.71471 16.1697 9.68952 16.1683 9.66478 16.1719Z" fill="#32ADE6"/>
<path d="M10.2742 16.2474C10.2852 16.2696 10.3004 16.2894 10.319 16.3057C10.3376 16.322 10.3593 16.3344 10.3827 16.3423C10.4061 16.3503 10.4309 16.3535 10.4556 16.3518C10.4803 16.3502 10.5044 16.3437 10.5265 16.3327C10.8007 16.1972 10.8583 16.0339 10.8583 15.9207C10.8583 15.5961 10.4173 15.4324 10.0474 15.3523C10.0232 15.3468 9.99804 15.3462 9.97351 15.3504C9.94899 15.3547 9.92555 15.3637 9.90455 15.3771C9.88355 15.3905 9.86541 15.4079 9.85118 15.4283C9.83695 15.4487 9.82691 15.4718 9.82165 15.4961C9.81638 15.5204 9.81599 15.5456 9.8205 15.57C9.825 15.5945 9.83432 15.6179 9.84791 15.6387C9.8615 15.6596 9.87908 15.6775 9.89966 15.6915C9.92023 15.7056 9.94337 15.7154 9.96776 15.7204C10.2954 15.7913 10.4335 15.8794 10.473 15.9205C10.4395 15.9513 10.4012 15.9765 10.3597 15.9951C10.3375 16.0061 10.3177 16.0213 10.3014 16.0399C10.2851 16.0585 10.2726 16.0801 10.2647 16.1036C10.2568 16.127 10.2535 16.1518 10.2552 16.1764C10.2568 16.2011 10.2633 16.2252 10.2742 16.2474Z" fill="#32ADE6"/>
<path d="M9.42339 15.2669C9.29784 15.2583 9.16808 15.2539 9.03775 15.2539C8.36178 15.2539 7.21777 15.3942 7.21777 15.92C7.21777 16.1148 7.37344 16.2724 7.68053 16.3885C7.72725 16.4061 7.77906 16.4045 7.82458 16.384C7.87009 16.3634 7.90558 16.3256 7.92323 16.2789C7.94088 16.2322 7.93925 16.1804 7.9187 16.1349C7.89815 16.0894 7.86036 16.0539 7.81365 16.0362C7.67854 15.9852 7.62318 15.9404 7.60277 15.919C7.68882 15.8226 8.16468 15.6305 9.0379 15.6305C9.15968 15.6305 9.28078 15.6345 9.39782 15.6426C9.44764 15.646 9.49677 15.6294 9.53441 15.5966C9.57205 15.5638 9.59512 15.5174 9.59853 15.4676C9.60194 15.4177 9.58542 15.3686 9.5526 15.331C9.51978 15.2933 9.47336 15.2703 9.42354 15.2669H9.42339Z" fill="#32ADE6"/>
<path d="M3.45037 17.8603C3.47431 17.867 3.49935 17.8689 3.52402 17.8658C3.5487 17.8628 3.57253 17.8549 3.59415 17.8426C3.61576 17.8303 3.63473 17.8139 3.64995 17.7942C3.66517 17.7746 3.67635 17.7521 3.68284 17.7281C3.68933 17.7041 3.691 17.6791 3.68776 17.6544C3.68451 17.6298 3.67642 17.606 3.66395 17.5845C3.65147 17.563 3.63486 17.5442 3.61507 17.5291C3.59528 17.5141 3.57271 17.5031 3.54865 17.4968C3.23048 17.4121 2.91681 17.3113 2.60886 17.1947C1.60889 16.8112 1.05821 16.3588 1.05821 15.9206C1.05821 15.3886 1.90171 14.8239 3.31503 14.4101C3.61538 14.3222 3.94212 14.2406 4.28623 14.1674C4.31042 14.1623 4.33336 14.1524 4.35374 14.1384C4.37412 14.1244 4.39154 14.1065 4.40501 14.0858C4.41848 14.0651 4.42773 14.0419 4.43224 14.0176C4.43675 13.9932 4.43642 13.9683 4.43128 13.9441C4.42614 13.9199 4.41629 13.897 4.40228 13.8766C4.38827 13.8562 4.37039 13.8388 4.34965 13.8253C4.32891 13.8118 4.30572 13.8026 4.28141 13.7981C4.25709 13.7936 4.23213 13.7939 4.20794 13.799C3.85469 13.8741 3.51864 13.9581 3.20922 14.0487C1.55565 14.5329 0.681641 15.1802 0.681641 15.9206C0.681641 16.5344 1.30143 17.0965 2.47409 17.5463C2.794 17.6674 3.11984 17.7722 3.45037 17.8603Z" fill="#32ADE6"/>
<path d="M5.89853 17.9396C5.63238 17.9068 5.36934 17.8694 5.11675 17.8284C5.06759 17.8208 5.0174 17.8328 4.97714 17.8621C4.93687 17.8913 4.9098 17.9352 4.90184 17.9843C4.89388 18.0334 4.90568 18.0837 4.93466 18.1241C4.96363 18.1646 5.00744 18.1919 5.05649 18.2001C5.3138 18.2419 5.58161 18.28 5.85251 18.3131C5.87722 18.3165 5.90236 18.3149 5.92646 18.3085C5.95057 18.3021 5.97316 18.291 5.99292 18.2758C6.01269 18.2606 6.02923 18.2416 6.0416 18.2199C6.05396 18.1982 6.0619 18.1743 6.06495 18.1496C6.068 18.1248 6.0661 18.0997 6.05937 18.0757C6.05263 18.0517 6.04119 18.0293 6.02571 18.0097C6.01023 17.9902 5.99102 17.9739 5.96919 17.9618C5.94737 17.9497 5.92336 17.9421 5.89857 17.9394L5.89853 17.9396Z" fill="#32ADE6"/>
<path d="M7.32606 18.4469C7.50497 18.4579 7.68756 18.4674 7.86922 18.475C8.25332 18.491 8.64645 18.4991 9.03759 18.4991C10.3101 18.5028 11.5811 18.4117 12.8401 18.2268C13.0661 18.1923 13.2895 18.1542 13.5039 18.1135C13.5282 18.1089 13.5514 18.0996 13.5721 18.086C13.5928 18.0725 13.6106 18.055 13.6245 18.0346C13.6384 18.0141 13.6482 17.9912 13.6532 17.9669C13.6583 17.9427 13.6585 17.9178 13.6539 17.8935C13.6493 17.8692 13.6399 17.846 13.6264 17.8253C13.6128 17.8047 13.5953 17.7868 13.5749 17.7729C13.5545 17.759 13.5315 17.7492 13.5073 17.7442C13.4831 17.7391 13.4581 17.7389 13.4338 17.7435C13.2237 17.7834 13.0048 17.8207 12.7833 17.8546C11.5431 18.0366 10.2911 18.1261 9.03759 18.1224C8.65164 18.1224 8.26382 18.1144 7.88488 18.0986C7.7059 18.0911 7.52575 18.0818 7.34933 18.0709C7.29949 18.0678 7.25047 18.0847 7.21304 18.1177C7.17562 18.1508 7.15286 18.1974 7.14977 18.2472C7.14669 18.297 7.16353 18.3461 7.19659 18.3835C7.22965 18.4209 7.27622 18.4437 7.32606 18.4468V18.4469Z" fill="#32ADE6"/>
<path d="M15.2795 17.4642C15.2719 17.4407 15.2597 17.4189 15.2436 17.4001C15.2276 17.3813 15.208 17.3658 15.1859 17.3545C15.1639 17.3433 15.1399 17.3365 15.1152 17.3346C15.0906 17.3326 15.0658 17.3355 15.0422 17.3432C14.8792 17.3959 14.7058 17.4474 14.5269 17.4957C14.503 17.5022 14.4806 17.5133 14.461 17.5284C14.4414 17.5435 14.425 17.5623 14.4127 17.5838C14.3878 17.6271 14.3812 17.6785 14.3942 17.7268C14.4073 17.775 14.439 17.8161 14.4823 17.8409C14.5256 17.8658 14.577 17.8725 14.6253 17.8594C14.8101 17.8094 14.9895 17.7563 15.1585 17.7016C15.182 17.6939 15.2038 17.6817 15.2226 17.6657C15.2414 17.6496 15.2569 17.63 15.2682 17.608C15.2794 17.5859 15.2862 17.5619 15.2881 17.5372C15.2901 17.5125 15.2871 17.4877 15.2795 17.4642Z" fill="#32ADE6"/>
<path d="M15.3907 14.2178C15.3674 14.2095 15.3427 14.206 15.318 14.2073C15.2933 14.2086 15.2691 14.2148 15.2468 14.2254C15.2244 14.2361 15.2045 14.2511 15.1879 14.2695C15.1714 14.2879 15.1586 14.3093 15.1504 14.3327C15.1422 14.356 15.1386 14.3807 15.1399 14.4054C15.1412 14.4301 15.1474 14.4543 15.1581 14.4766C15.1687 14.4989 15.1837 14.5189 15.2021 14.5354C15.2205 14.552 15.2419 14.5647 15.2653 14.573C16.3779 14.9661 17.0161 15.4573 17.0161 15.9208C17.0161 16.168 16.8413 16.4193 16.4967 16.6677C16.2815 16.8179 16.0519 16.9464 15.8114 17.0513C15.7887 17.0614 15.7682 17.0758 15.7511 17.0938C15.7341 17.1118 15.7207 17.133 15.7119 17.1562C15.703 17.1794 15.6988 17.2041 15.6996 17.2289C15.7003 17.2537 15.7059 17.2781 15.7161 17.3007C15.7263 17.3233 15.7408 17.3437 15.7589 17.3607C15.777 17.3777 15.7983 17.3909 15.8215 17.3996C15.8447 17.4084 15.8694 17.4124 15.8942 17.4116C15.919 17.4107 15.9434 17.405 15.966 17.3947C16.2296 17.2794 16.4812 17.1382 16.7168 16.9732C17.1652 16.65 17.3926 16.2959 17.3926 15.9208C17.3926 15.2693 16.7004 14.6805 15.3907 14.2178Z" fill="#32ADE6"/>
<path d="M13.6428 13.9441C13.6376 13.9683 13.6373 13.9932 13.6418 14.0176C13.6463 14.0419 13.6556 14.065 13.6691 14.0858C13.6825 14.1065 13.7 14.1244 13.7203 14.1384C13.7407 14.1524 13.7636 14.1623 13.7878 14.1674C14.081 14.2296 14.3623 14.2983 14.6238 14.3714C14.6476 14.3781 14.6725 14.38 14.6971 14.377C14.7216 14.374 14.7453 14.3663 14.7669 14.3541C14.7884 14.342 14.8074 14.3258 14.8226 14.3063C14.8379 14.2869 14.8492 14.2646 14.8558 14.2408C14.8625 14.217 14.8644 14.1921 14.8614 14.1675C14.8585 14.143 14.8507 14.1192 14.8386 14.0977C14.8264 14.0762 14.8102 14.0572 14.7907 14.0419C14.7713 14.0267 14.749 14.0154 14.7252 14.0087C14.4559 13.9334 14.1668 13.8629 13.8659 13.799C13.8171 13.7887 13.7662 13.7981 13.7243 13.8254C13.6825 13.8526 13.6532 13.8953 13.6428 13.9441Z" fill="#32ADE6"/>
<path d="M7.86853 13.3642C7.84369 13.365 7.81926 13.3707 7.79664 13.3811C7.77403 13.3914 7.75368 13.4061 7.73678 13.4243C7.71987 13.4425 7.70674 13.4639 7.69814 13.4872C7.68955 13.5105 7.68565 13.5353 7.68669 13.5602C7.68772 13.585 7.69366 13.6094 7.70417 13.6319C7.71467 13.6545 7.72954 13.6747 7.7479 13.6914C7.76626 13.7082 7.78776 13.7211 7.81115 13.7295C7.83455 13.7379 7.85937 13.7416 7.8842 13.7404C8.26317 13.7246 8.65096 13.7166 9.0369 13.7166C10.2798 13.7131 11.5212 13.801 12.7512 13.9798C12.7606 13.9812 12.7701 13.9819 12.7796 13.9819C12.8271 13.9818 12.8728 13.9638 12.9076 13.9315C12.9424 13.8992 12.9636 13.8549 12.9672 13.8076C12.9707 13.7602 12.9562 13.7133 12.9266 13.6762C12.897 13.6391 12.8545 13.6145 12.8075 13.6074C11.559 13.4246 10.2987 13.3352 9.0369 13.34C8.64576 13.34 8.25267 13.3481 7.86853 13.3642Z" fill="#32ADE6"/>
<path d="M5.29446 13.9819C5.30396 13.9819 5.31345 13.9812 5.32285 13.9798C5.62885 13.9334 5.94795 13.8925 6.27179 13.8582C6.43906 13.8404 6.6107 13.824 6.78256 13.8095C6.83232 13.8053 6.87837 13.7815 6.91058 13.7433C6.94279 13.7052 6.95852 13.6558 6.95431 13.606C6.9501 13.5563 6.9263 13.5102 6.88814 13.478C6.84997 13.4458 6.80058 13.4301 6.75082 13.4343C6.57647 13.4491 6.40193 13.4657 6.23203 13.4837C5.90291 13.5187 5.57812 13.5603 5.26663 13.6074C5.21968 13.6145 5.17714 13.6391 5.14753 13.6762C5.11792 13.7133 5.10343 13.7602 5.10697 13.8076C5.1105 13.8549 5.13179 13.8992 5.16658 13.9315C5.20137 13.9638 5.24697 13.9818 5.29446 13.9819Z" fill="#32ADE6"/>
<path d="M8.55302 5.99724L8.25279 4.76697C8.24307 4.72715 8.2466 4.68525 8.26286 4.64763C8.27912 4.61001 8.3072 4.57872 8.34286 4.55851C8.37851 4.53831 8.41978 4.53028 8.46041 4.53566C8.50104 4.54104 8.5388 4.55953 8.56797 4.58832L9.73464 5.73997C9.75241 5.75747 9.76653 5.77832 9.77618 5.80132C9.78582 5.82432 9.7908 5.84901 9.79083 5.87395V6.46425H14.6109V1.55664H3.46484V6.46425H8.31499L8.55302 5.99724Z" fill="#32ADE6"/>
<path d="M3.08891 0.933594H2.20801V7.08767H3.08891V0.933594Z" fill="#32ADE6"/>
<path d="M15.8682 0.933594H14.9873V7.08767H15.8682V0.933594Z" fill="#32ADE6"/>
<path d="M17.8865 0.5H16.4324C16.3825 0.50006 16.3346 0.519916 16.2994 0.555213C16.2641 0.590509 16.2442 0.638365 16.2441 0.688282V2.42914H18.0748V0.688282C18.0747 0.638365 18.0549 0.590509 18.0196 0.555213C17.9843 0.519916 17.9364 0.50006 17.8865 0.5Z" fill="#32ADE6"/>
<path d="M1.83067 7.3328V5.5918H0V7.3328C5.97931e-05 7.38272 0.0199158 7.43058 0.0552126 7.46587C0.0905094 7.50117 0.138365 7.52103 0.188282 7.52109H1.64239C1.6923 7.52103 1.74016 7.50117 1.77546 7.46587C1.81075 7.43058 1.83061 7.38272 1.83067 7.3328Z" fill="#32ADE6"/>
<path d="M18.0748 2.80664H16.2441V5.21628H18.0748V2.80664Z" fill="#32ADE6"/>
<path d="M1.83067 0.688282C1.83061 0.638365 1.81075 0.590509 1.77546 0.555213C1.74016 0.519916 1.6923 0.50006 1.64239 0.5H0.188282C0.138365 0.50006 0.0905094 0.519916 0.0552126 0.555213C0.0199158 0.590509 5.97931e-05 0.638365 0 0.688282V2.42914H1.83067V0.688282Z" fill="#32ADE6"/>
<path d="M16.2441 7.3328C16.2442 7.38272 16.2641 7.43058 16.2994 7.46587C16.3346 7.50117 16.3825 7.52103 16.4324 7.52109H17.8865C17.9364 7.52103 17.9843 7.50117 18.0196 7.46587C18.0549 7.43058 18.0747 7.38272 18.0748 7.3328V5.5918H16.2441V7.3328Z" fill="#32ADE6"/>
<path d="M1.83067 2.80664H0V5.21628H1.83067V2.80664Z" fill="#32ADE6"/>
<path d="M10.4904 9.4112L9.19044 7.59992C9.173 7.57564 9.15003 7.55587 9.12343 7.54223C9.09683 7.52859 9.06737 7.52148 9.03748 7.52148C9.00762 7.52148 8.9782 7.52858 8.95163 7.5422C8.92506 7.55581 8.90211 7.57554 8.88467 7.59977L7.58469 9.40608C7.58119 9.41097 7.57788 9.41602 7.57486 9.42114C7.30148 9.89015 7.30468 10.4597 7.58341 10.9448C7.72937 11.2021 7.94099 11.4161 8.19667 11.5649C8.45235 11.7137 8.74293 11.792 9.03876 11.7918C9.33459 11.7917 9.62507 11.713 9.88056 11.5638C10.136 11.4147 10.3474 11.2005 10.493 10.9429C10.7704 10.4589 10.773 9.89173 10.4999 9.42573C10.4969 9.42079 10.4938 9.41594 10.4904 9.4112ZM9.89774 10.0773C9.82883 10.4031 9.66351 10.7007 9.42327 10.9313C9.38735 10.966 9.33912 10.985 9.28919 10.9841C9.23927 10.9832 9.19173 10.9626 9.15704 10.9266C9.12235 10.8907 9.10335 10.8425 9.10421 10.7926C9.10508 10.7426 9.12575 10.6951 9.16167 10.6604C9.3472 10.4829 9.47506 10.2537 9.52863 10.0026C9.53923 9.95439 9.56836 9.91224 9.60975 9.88528C9.65113 9.85832 9.70146 9.8487 9.74987 9.8585C9.79828 9.86829 9.8409 9.89672 9.86855 9.93765C9.8962 9.97858 9.90665 10.0287 9.89766 10.0773H9.89774Z" fill="#32ADE6"/>
</svg>
